<?xml version="1.0" standalone="no"?>
<!DOCTYPE svg PUBLIC "-//W3C//DTD SVG 20010904//EN"
 "http://www.w3.org/TR/2001/REC-SVG-20010904/DTD/svg10.dtd">
<svg version="1.0" xmlns="http://www.w3.org/2000/svg"
 width="3021.000000pt" height="2071.000000pt" viewBox="0 0 3021.000000 2071.000000"
 preserveAspectRatio="xMidYMid meet">

<g transform="translate(0.000000,2071.000000) scale(0.100000,-0.100000)"
fill="#000000" stroke="none">
<path d="M14000 20689 c-3124 -301 -5913 -1776 -7790 -4121 -1173 -1464 -1909
-3190 -2134 -5008 -330 -2650 430 -5298 2130 -7424 701 -877 1523 -1627 2479
-2263 1543 -1027 3330 -1660 5222 -1852 190 -20 266 -21 1198 -21 1088 0 1095
0 1585 66 2913 390 5540 1851 7314 4070 1254 1569 2008 3439 2171 5389 185
2218 -379 4405 -1623 6287 -1056 1595 -2560 2901 -4337 3764 -1255 609 -2601
982 -4024 1114 -197 18 -289 20 -1105 19 -790 -1 -913 -3 -1086 -20z m-1869
-4643 c-5 -6 -17 -47 -26 -91 -28 -131 -58 -262 -91 -405 -9 -36 -19 -83 -24
-105 -5 -22 -16 -69 -24 -105 -21 -87 -43 -188 -50 -225 -8 -40 -12 -58 -30
-138 -33 -142 -47 -205 -62 -277 -22 -102 -18 -87 -58 -260 -20 -85 -47 -207
-62 -270 -123 -541 -115 -513 -147 -528 -16 -8 -39 -16 -50 -18 -38 -6 -192
-48 -197 -54 -3 -3 -14 -6 -25 -8 -16 -2 -38 -7 -52 -11 -2 -1 -5 -1 -8 -1 -3
-1 -23 -7 -45 -15 -22 -8 -40 -12 -40 -10 0 2 -18 -2 -39 -10 -22 -7 -42 -11
-45 -8 -3 4 -6 1 -6 -6 0 -7 -4 -10 -10 -6 -5 3 -24 -1 -42 -8 -18 -8 -39 -12
-45 -10 -7 3 -13 1 -13 -4 0 -5 -8 -10 -17 -11 -15 -1 -51 -8 -60 -11 -2 -1
-5 -1 -8 -1 -3 -1 -23 -7 -45 -15 -22 -8 -40 -12 -40 -10 0 2 -18 -2 -39 -10
-22 -7 -42 -11 -45 -8 -3 4 -6 1 -6 -6 0 -7 -4 -10 -10 -6 -5 3 -24 -1 -42 -8
-18 -8 -39 -12 -45 -10 -7 3 -13 1 -13 -4 0 -5 -8 -10 -17 -11 -22 -2 -58 -10
-58 -12 0 -2 -16 -6 -55 -13 -14 -3 -26 -6 -27 -6 -2 -1 -5 -1 -8 -1 -3 -1
-22 -7 -44 -15 -22 -7 -42 -11 -45 -8 -3 4 -6 1 -6 -6 0 -7 -4 -10 -10 -6 -5
3 -25 -1 -44 -9 -19 -8 -36 -12 -39 -10 -3 3 -20 -1 -38 -9 -19 -7 -40 -12
-46 -10 -7 3 -13 1 -13 -4 0 -5 -8 -9 -17 -10 -19 -1 -58 -10 -58 -13 0 -1 -7
-3 -15 -5 -8 -1 -62 -15 -120 -30 -58 -15 -117 -30 -132 -32 -16 -3 -28 -10
-28 -15 0 -5 -4 -7 -9 -4 -4 3 -21 1 -37 -3 -16 -5 -46 -14 -67 -21 -20 -6
-48 -13 -62 -16 -13 -2 -36 -9 -50 -14 -14 -5 -25 -8 -25 -5 0 2 -25 -5 -55
-15 -30 -10 -55 -17 -55 -15 0 2 -18 -2 -40 -10 -22 -8 -40 -12 -40 -10 0 3
-12 0 -27 -6 -25 -10 -114 -35 -153 -44 -8 -2 -49 -13 -90 -24 -41 -12 -82
-23 -90 -26 -8 -2 -15 -4 -15 -5 0 -2 -16 -6 -55 -13 -14 -3 -26 -6 -27 -6 -2
-1 -5 -1 -8 -1 -3 -1 -22 -7 -44 -15 -22 -7 -42 -11 -45 -8 -3 4 -6 1 -6 -6 0
-7 -4 -10 -9 -7 -5 3 -25 -1 -45 -9 -20 -8 -36 -13 -36 -11 0 3 -18 -1 -40 -9
-22 -8 -43 -14 -45 -14 -11 1 -71 -14 -80 -20 -5 -3 -13 -6 -17 -7 -5 -1 -9
-2 -10 -4 -4 -2 -40 -10 -60 -12 -10 -1 -18 -6 -18 -11 0 -5 -6 -7 -12 -4 -7
2 -45 -6 -85 -18 -40 -13 -75 -20 -78 -17 -3 3 -5 0 -5 -7 0 -7 -4 -10 -9 -7
-15 10 -161 -42 -161 -57 0 -7 20 -26 43 -44 23 -18 74 -60 112 -94 39 -34 82
-72 96 -84 14 -12 90 -78 168 -146 79 -68 169 -146 201 -174 73 -63 257 -224
285 -248 11 -10 34 -31 50 -46 17 -15 62 -54 100 -87 39 -32 75 -64 80 -70 6
-7 55 -51 110 -99 102 -88 111 -96 251 -221 43 -39 115 -102 159 -140 44 -38
85 -74 90 -80 6 -6 152 -136 325 -290 173 -153 317 -281 320 -284 3 -3 52 -48
110 -99 58 -52 132 -119 165 -150 33 -31 78 -71 99 -89 29 -26 35 -36 27 -46
-7 -8 -11 -18 -10 -22 1 -5 0 -11 -1 -14 -3 -8 -2 -4 -55 -240 -10 -41 -21
-91 -25 -110 -4 -19 -16 -69 -25 -110 -22 -96 -31 -134 -43 -190 -5 -25 -36
-155 -67 -290 -60 -258 -67 -288 -83 -360 -18 -82 -97 -421 -113 -485 -5 -22
-11 -49 -13 -60 -3 -11 -20 -85 -39 -165 -37 -153 -55 -232 -61 -266 -2 -11
-9 -38 -15 -60 -5 -21 -14 -56 -18 -77 l-8 -37 -25 22 c-14 13 -59 52 -100 88
-41 35 -100 87 -131 115 -30 27 -84 75 -119 105 -35 30 -89 78 -119 106 -31
28 -90 80 -131 115 -41 35 -79 69 -85 75 -11 13 -255 229 -360 319 -38 33 -78
69 -90 81 -11 11 -54 50 -95 85 -41 35 -79 69 -85 75 -5 6 -50 46 -100 89 -49
43 -112 98 -140 124 -27 26 -84 76 -125 111 -41 36 -79 70 -85 76 -5 6 -48 44
-95 85 -47 41 -107 95 -135 120 -27 25 -72 66 -100 90 -27 24 -75 66 -106 94
-30 27 -89 79 -129 115 -41 36 -102 90 -135 120 -33 31 -96 87 -140 125 -44
39 -84 75 -90 81 -5 5 -50 46 -100 90 -49 43 -92 81 -95 84 -3 3 -50 46 -105
95 -55 49 -141 126 -191 172 -50 46 -94 83 -97 83 -3 0 -25 19 -49 43 -24 24
-88 83 -143 132 -55 48 -122 109 -150 134 -27 26 -90 82 -140 126 -49 44 -115
103 -145 131 -30 29 -83 76 -116 105 -34 30 -128 115 -210 189 -81 74 -200
182 -263 239 -64 57 -141 127 -171 155 -30 29 -89 83 -130 121 -41 37 -117
109 -167 158 -103 100 -101 94 -71 210 5 21 11 50 13 65 2 15 11 61 20 102 9
41 18 84 19 95 2 11 6 27 9 35 3 8 8 29 11 45 3 17 13 62 21 100 8 39 18 84
21 100 3 17 9 46 14 65 11 41 47 204 53 240 3 14 10 43 15 65 6 22 13 51 16
65 2 14 9 48 16 75 6 28 15 68 20 90 5 22 16 72 25 110 9 39 21 88 26 110 46
208 109 467 119 493 5 12 16 22 25 22 8 0 15 4 15 8 0 5 6 9 13 10 42 3 57 7
57 15 0 4 4 5 10 2 5 -3 18 -1 28 4 11 6 34 13 52 16 18 3 41 10 51 16 11 5
19 7 19 3 0 -3 7 -1 15 6 8 7 15 10 15 6 0 -3 15 0 33 7 17 8 38 12 45 10 6
-3 12 -1 12 5 0 5 6 9 13 10 39 3 57 7 57 12 0 3 8 6 18 7 17 1 55 10 60 13 2
3 2 3 52 14 19 5 40 11 45 14 6 4 15 7 20 8 35 7 60 13 63 13 1 1 3 1 5 0 1 0
16 5 32 11 17 7 37 13 46 15 9 2 49 13 90 26 41 12 80 22 87 22 6 0 12 3 12 7
0 3 8 6 18 7 9 0 42 8 72 17 60 18 78 23 128 32 17 3 32 11 32 16 0 5 4 7 10
3 5 -3 25 1 45 9 19 8 39 15 43 16 39 4 82 14 82 19 0 4 8 7 18 8 39 4 82 16
82 22 0 4 8 7 18 8 13 1 42 7 60 12 1 1 4 1 7 1 3 0 20 6 38 13 17 8 38 12 45
10 6 -3 12 -1 12 5 0 5 6 9 13 9 27 1 81 14 113 28 19 8 34 12 34 9 0 -3 6 -2
13 3 6 4 17 8 22 9 6 1 25 5 44 8 19 4 42 11 52 17 11 5 19 7 19 3 0 -3 7 -1
15 6 8 7 15 10 15 6 0 -3 16 1 37 9 20 8 38 13 41 10 2 -2 12 0 22 5 9 5 32
12 50 15 18 3 48 12 66 20 19 8 34 12 34 10 0 -2 19 3 43 11 23 9 51 17 62 20
11 2 35 7 53 10 17 3 32 11 32 16 0 5 4 7 10 3 5 -3 25 1 45 9 19 8 36 15 38
15 18 -1 87 15 87 20 0 4 8 7 18 8 13 1 42 7 60 12 1 1 4 1 7 1 3 0 20 6 38
13 17 8 38 12 45 10 6 -3 12 -1 12 5 0 5 6 9 13 9 27 1 81 14 113 28 19 8 34
12 34 10 0 -3 11 0 25 5 14 5 37 12 50 14 23 4 42 10 140 41 22 7 65 19 95 26
30 7 57 16 60 19 3 3 12 6 20 7 25 3 61 12 99 25 20 7 42 11 49 10 6 -2 12 1
12 6 0 5 6 9 13 9 27 1 81 14 113 28 19 8 34 12 34 10 0 -2 18 2 39 10 22 7
42 11 45 8 3 -4 6 -2 6 3 0 5 8 10 18 11 13 1 42 7 60 12 1 1 4 1 7 1 3 1 23
7 45 15 22 8 40 12 40 10 0 -2 16 3 35 11 19 8 35 12 35 9 0 -2 24 4 53 14 55
21 117 36 130 33 4 -1 7 2 7 6 0 4 8 8 18 9 25 2 156 36 162 42 3 4 14 7 25 9
53 9 75 15 75 21 0 4 8 7 18 8 17 1 55 10 60 13 4 4 15 7 60 15 23 4 42 11 42
14 0 4 8 7 18 8 17 1 55 10 60 13 3 3 12 6 57 15 22 4 47 11 56 16 9 4 27 10
40 12 14 3 58 15 99 27 41 13 81 23 88 23 6 0 12 3 12 7 0 3 8 6 18 7 33 2
157 37 160 45 2 5 7 6 12 3 4 -3 24 2 44 10 20 8 39 15 43 15 27 1 83 14 83
19 0 4 8 8 18 9 14 1 50 8 60 11 1 1 4 1 7 1 3 0 21 6 40 14 19 8 35 13 35 10
0 -3 6 -2 13 3 6 4 17 8 22 9 35 7 60 13 63 13 1 1 5 1 10 2 4 0 22 7 40 14
17 8 32 12 32 10 0 -2 18 2 39 10 22 7 42 11 45 8 3 -4 6 -1 6 6 0 7 4 10 9 7
5 -3 25 1 45 9 20 8 38 15 41 15 24 -1 85 15 85 22 0 5 4 7 9 4 5 -3 26 1 47
10 22 9 41 16 44 15 18 -3 80 13 80 21 0 5 4 7 9 4 5 -3 25 1 45 9 20 8 36 13
36 10 0 -4 6 -3 13 2 12 8 28 12 60 15 9 1 17 6 17 11 0 4 4 5 10 2 5 -3 18
-2 27 4 22 12 48 -6 34 -23z m4829 -9 c36 0 130 -4 210 -9 206 -14 329 -20
373 -19 38 1 38 0 31 -32 -4 -17 -8 -41 -10 -52 -1 -11 -12 -60 -24 -110 -12
-49 -29 -130 -40 -180 -10 -49 -32 -157 -50 -240 -18 -82 -33 -157 -35 -165
-2 -8 -8 -35 -14 -60 -28 -122 -53 -236 -56 -259 -2 -14 -10 -53 -18 -86 -13
-48 -38 -166 -62 -285 -2 -8 -8 -35 -14 -60 -27 -118 -53 -236 -56 -259 -2
-14 -13 -66 -25 -116 -12 -49 -30 -134 -41 -189 -10 -54 -21 -102 -24 -106 -2
-4 -7 -22 -9 -41 -3 -19 -14 -74 -25 -124 -11 -49 -22 -101 -25 -115 -3 -14
-14 -68 -26 -120 -35 -157 -61 -283 -65 -310 -2 -14 -4 -25 -5 -25 -1 0 -3 -7
-5 -15 -9 -37 -44 -197 -49 -220 -3 -14 -14 -68 -26 -120 -35 -157 -61 -283
-65 -310 -2 -14 -4 -25 -5 -25 -2 0 -7 -21 -35 -154 -14 -68 -28 -127 -30
-131 -3 -4 -6 -22 -9 -41 -2 -19 -14 -74 -25 -122 -12 -48 -32 -141 -45 -205
-14 -64 -36 -171 -50 -237 -15 -66 -28 -129 -31 -140 -2 -11 -13 -63 -25 -115
-18 -82 -62 -285 -75 -345 -2 -11 -13 -63 -25 -115 -11 -52 -22 -104 -25 -115
-2 -11 -13 -63 -25 -115 -36 -163 -61 -284 -66 -315 -2 -16 -8 -46 -14 -65
-10 -32 -54 -237 -66 -304 -3 -16 -7 -32 -9 -36 -3 -4 -6 -22 -9 -41 -2 -19
-9 -52 -15 -74 -12 -47 -59 -265 -67 -315 -3 -19 -8 -38 -10 -42 -2 -3 -8 -28
-14 -55 -5 -26 -21 -102 -35 -168 -15 -66 -37 -169 -50 -230 -13 -60 -38 -177
-55 -260 -18 -82 -33 -157 -35 -165 -2 -8 -8 -35 -14 -60 -28 -123 -53 -236
-56 -259 -1 -15 -8 -44 -13 -66 -6 -22 -13 -51 -16 -65 -12 -61 -47 -229 -56
-265 -6 -22 -12 -51 -14 -65 -3 -14 -14 -68 -26 -120 -18 -83 -58 -266 -77
-355 -3 -16 -7 -40 -7 -52 -1 -13 -4 -23 -7 -23 -4 0 -9 -17 -12 -37 -3 -21
-13 -69 -22 -108 -17 -76 -37 -171 -40 -195 -1 -8 -5 -22 -8 -30 -3 -8 -8 -28
-11 -45 -3 -16 -13 -61 -21 -100 -9 -38 -18 -86 -21 -105 -3 -19 -7 -37 -9
-40 -2 -3 -6 -25 -10 -50 -4 -25 -9 -48 -11 -51 -4 -6 -21 -85 -64 -289 -5
-25 -16 -76 -24 -114 -8 -38 -13 -73 -10 -77 2 -4 0 -9 -4 -11 -5 -1 -23 -73
-41 -158 -17 -85 -43 -207 -57 -270 -25 -111 -49 -222 -98 -455 -50 -232 -78
-350 -86 -359 -5 -5 -285 -6 -662 -2 -657 7 -728 9 -744 18 -5 3 -21 8 -36 12
-24 5 -26 9 -18 34 11 32 90 376 95 412 1 14 8 44 14 66 6 23 20 84 31 135 49
226 71 326 110 504 23 105 44 199 45 210 2 11 13 61 25 110 12 50 23 101 25
115 2 14 12 63 24 110 11 47 29 128 40 180 24 113 67 309 87 400 16 74 36 168
39 190 1 8 5 22 8 30 3 8 8 29 11 45 3 17 13 62 21 100 9 39 18 86 21 105 3
19 8 38 10 41 2 4 13 49 23 100 11 52 31 146 45 209 34 155 73 332 102 468 13
61 35 163 48 225 14 61 34 157 46 212 11 55 27 127 35 160 14 59 52 230 59
270 2 11 18 83 35 161 17 77 33 158 37 180 3 21 8 42 10 45 4 7 53 232 59 269
2 14 15 72 28 130 22 91 38 171 43 205 0 6 4 17 7 25 5 12 23 96 52 240 2 8 8
35 14 60 28 122 53 236 56 259 2 14 10 53 18 86 9 33 25 107 37 165 12 58 24
112 25 120 10 43 46 208 50 225 2 11 13 63 25 115 33 148 68 312 101 465 39
184 71 333 104 480 45 207 76 346 100 460 13 61 31 142 40 180 17 75 36 171
40 195 1 8 5 22 8 30 2 8 10 42 16 75 7 33 16 78 21 100 11 48 77 349 84 385
3 14 19 88 36 165 17 77 33 151 35 165 2 14 15 72 28 130 21 88 33 147 43 205
1 6 3 12 4 15 3 10 46 201 53 240 3 14 10 45 16 70 27 119 53 236 56 259 2 14
10 53 18 86 9 33 25 107 37 165 12 58 24 112 26 120 26 117 36 162 43 200 5
25 16 77 25 115 9 39 28 124 42 190 13 66 27 128 30 138 6 18 23 18 387 11
210 -4 411 -7 447 -7z m-2877 -1431 c6 -14 21 -131 53 -401 8 -71 19 -164 24
-205 5 -41 12 -100 15 -130 3 -30 10 -89 15 -130 5 -41 14 -122 20 -180 6 -58
18 -157 25 -220 8 -63 19 -162 25 -220 6 -58 18 -157 25 -220 8 -63 19 -160
25 -215 6 -55 17 -154 25 -220 8 -66 19 -165 25 -220 6 -55 15 -138 21 -185 5
-47 12 -103 14 -125 12 -103 67 -600 75 -680 6 -49 12 -106 15 -125 3 -19 7
-57 10 -85 3 -27 10 -88 15 -135 65 -561 66 -565 46 -646 -36 -153 -208 -883
-221 -941 -35 -150 -46 -194 -69 -293 -14 -58 -57 -240 -96 -405 -39 -165 -79
-336 -90 -380 -10 -44 -49 -206 -85 -360 -84 -358 -100 -424 -135 -570 -16
-66 -47 -196 -70 -290 -51 -212 -60 -248 -65 -243 -5 4 -28 144 -60 368 -14
96 -32 220 -40 275 -9 55 -20 132 -25 170 -6 39 -21 149 -35 245 -14 96 -30
209 -35 250 -6 41 -17 118 -25 170 -8 52 -21 149 -30 215 -9 66 -20 145 -25
175 -5 30 -17 109 -25 175 -9 66 -20 145 -25 175 -5 30 -16 105 -25 165 -23
169 -65 457 -95 650 -5 33 -16 107 -25 165 -32 212 -61 396 -71 439 -10 46
-24 5 -69 -204 -7 -33 -38 -177 -69 -320 -31 -143 -63 -289 -71 -325 -8 -36
-30 -141 -50 -235 -20 -93 -42 -199 -50 -235 -8 -36 -25 -119 -39 -185 -51
-244 -65 -314 -106 -505 -22 -107 -68 -323 -101 -480 -33 -157 -66 -314 -74
-350 -8 -36 -25 -119 -39 -185 -32 -154 -85 -407 -140 -660 l-43 -200 -644 -3
c-631 -3 -893 2 -919 18 -17 10 -28 -42 249 1175 132 583 247 1089 255 1125 8
36 72 317 141 625 69 308 130 578 135 600 5 22 55 243 110 490 55 248 105 468
110 490 18 75 39 171 150 665 61 272 117 520 124 550 8 30 19 80 25 110 73
342 501 2204 508 2211 20 20 185 26 829 28 584 1 672 0 677 -13z m4823 -51
c307 -146 462 -296 533 -514 33 -103 54 -272 47 -379 -10 -143 -110 -629 -268
-1297 -279 -1183 -392 -1614 -460 -1752 -80 -161 -192 -277 -405 -418 l-102
-67 69 -85 c126 -156 186 -322 209 -578 8 -102 8 -115 -10 -265 -15 -128 -80
-446 -203 -1000 -239 -1072 -383 -1707 -391 -1720 -20 -32 -77 -35 -755 -35
-371 0 -696 4 -721 8 -52 9 -50 -3 -23 134 14 71 172 767 219 963 120 504 166
697 270 1153 126 548 136 598 142 698 7 109 -7 153 -55 181 -36 22 -61 26
-202 38 -141 12 -178 18 -185 30 -5 9 18 130 114 585 62 295 102 482 157 735
14 63 35 162 48 220 l22 105 190 5 c155 4 195 8 216 22 55 36 161 233 212 396
32 102 107 399 156 617 5 22 14 62 20 89 40 178 75 347 101 494 15 87 17 122
9 151 -15 57 -69 131 -119 163 l-46 30 -165 -6 c-91 -3 -171 -2 -178 3 -14 8
-13 20 23 216 9 50 25 140 36 200 11 61 33 182 49 270 16 88 38 212 49 275 11
63 32 178 46 255 14 77 25 141 25 143 0 1 268 2 595 2 l594 0 137 -65z m1198
-1705 c60 -52 112 -97 117 -98 5 -2 26 -20 47 -41 20 -20 73 -68 117 -106 101
-88 239 -210 340 -300 43 -38 81 -71 85 -73 4 -1 29 -23 56 -49 27 -25 96 -86
154 -137 58 -50 107 -93 110 -96 5 -6 114 -102 275 -243 137 -120 169 -148
211 -185 43 -40 60 -55 199 -176 50 -43 108 -95 130 -115 22 -20 74 -66 115
-101 41 -36 95 -84 120 -106 25 -23 79 -70 120 -105 41 -35 82 -71 90 -80 8
-9 49 -44 90 -80 41 -35 95 -83 120 -105 25 -23 79 -70 119 -105 41 -35 84
-73 96 -84 25 -24 140 -125 175 -154 14 -12 41 -36 60 -54 19 -18 69 -62 110
-97 41 -36 82 -72 91 -80 9 -8 34 -31 56 -50 21 -19 77 -69 124 -111 46 -42
120 -107 164 -145 44 -38 87 -76 95 -85 8 -9 51 -47 95 -85 44 -38 82 -72 85
-75 3 -3 50 -46 106 -95 55 -49 139 -124 186 -166 47 -43 88 -78 91 -78 3 0
25 -19 49 -43 24 -24 86 -81 138 -127 52 -47 122 -109 155 -140 34 -30 98 -89
144 -130 112 -100 123 -111 218 -201 l82 -77 -8 -48 c-7 -39 -42 -203 -77
-354 -1 -8 -10 -44 -18 -80 -31 -137 -68 -300 -96 -415 -16 -66 -31 -131 -34
-145 -2 -14 -18 -83 -36 -155 -17 -71 -40 -168 -51 -215 -43 -180 -121 -497
-135 -547 -13 -46 -19 -53 -52 -64 -20 -7 -37 -11 -37 -10 0 2 -24 -7 -52 -18
-29 -11 -53 -18 -53 -16 0 3 -16 -1 -35 -9 -19 -8 -35 -12 -35 -9 0 3 -7 0
-15 -7 -8 -7 -15 -10 -15 -6 0 3 -16 0 -35 -8 -19 -8 -35 -13 -35 -11 0 2 -18
-2 -40 -10 -22 -8 -40 -12 -40 -10 0 2 -16 -3 -35 -11 -19 -8 -35 -11 -35 -8
0 4 -7 1 -15 -6 -8 -7 -15 -9 -15 -6 0 4 -8 2 -18 -3 -11 -6 -30 -12 -43 -14
-14 -3 -58 -15 -98 -27 -41 -12 -81 -23 -90 -26 -9 -2 -47 -13 -86 -24 -38
-11 -80 -23 -92 -25 -12 -3 -33 -9 -47 -15 -13 -5 -27 -6 -30 -3 -3 4 -6 1 -6
-6 0 -7 -4 -10 -9 -7 -5 3 -25 -1 -45 -9 -20 -8 -38 -15 -41 -14 -10 1 -70
-13 -80 -20 -12 -7 -8 -6 -62 -16 -24 -4 -43 -11 -43 -14 0 -4 -8 -7 -17 -8
-18 -1 -56 -10 -60 -13 -5 -4 -16 -7 -60 -15 -24 -4 -43 -11 -43 -14 0 -4 -8
-8 -17 -9 -15 -1 -51 -8 -60 -11 -2 -1 -5 -1 -8 -1 -3 0 -21 -6 -40 -14 -19
-8 -35 -13 -35 -11 0 2 -18 -2 -39 -10 -22 -7 -42 -11 -45 -8 -3 4 -6 2 -6 -3
0 -5 -8 -10 -17 -11 -26 -2 -157 -36 -163 -42 -3 -4 -12 -7 -20 -8 -8 -1 -40
-9 -70 -18 -30 -9 -63 -16 -72 -16 -10 0 -18 -5 -18 -11 0 -6 -2 -9 -5 -6 -3
3 -36 -3 -73 -14 -37 -10 -74 -20 -82 -23 -8 -2 -15 -4 -15 -5 0 -2 -18 -6
-64 -14 -18 -4 -49 -13 -67 -21 -19 -8 -34 -12 -34 -10 0 2 -18 -2 -40 -10
-22 -8 -40 -12 -40 -10 0 3 -22 -4 -50 -15 -27 -11 -50 -18 -50 -15 0 2 -18
-2 -39 -10 -22 -7 -42 -11 -45 -8 -3 4 -6 2 -6 -3 0 -5 -8 -10 -17 -11 -39 -4
-83 -16 -83 -22 0 -3 -11 -7 -25 -7 -14 -1 -33 -5 -43 -10 -25 -11 -23 -10
-69 -19 -24 -4 -43 -11 -43 -14 0 -4 -8 -7 -17 -8 -14 -1 -43 -7 -60 -12 -2
-1 -5 -1 -8 -1 -3 -1 -23 -7 -45 -15 -22 -8 -40 -12 -40 -10 0 3 -12 0 -27 -6
-16 -6 -35 -12 -43 -14 -20 -4 -153 -42 -215 -61 -27 -8 -58 -15 -67 -15 -10
0 -18 -3 -18 -7 0 -4 -8 -8 -17 -9 -30 -2 -74 -13 -109 -28 -18 -7 -34 -11
-37 -9 -2 2 -20 -3 -40 -11 -21 -8 -37 -12 -37 -9 0 4 -7 0 -17 -7 -9 -8 -18
-13 -20 -11 -6 5 -77 -11 -110 -25 -18 -7 -33 -11 -33 -9 0 3 -18 -1 -39 -9
-22 -7 -42 -11 -45 -8 -3 4 -6 2 -6 -3 0 -5 -8 -10 -17 -11 -10 0 -45 -8 -78
-18 -33 -9 -66 -17 -72 -18 -7 0 -13 -4 -13 -9 0 -5 -4 -6 -10 -3 -5 3 -18 1
-28 -4 -11 -6 -34 -13 -52 -16 -18 -3 -47 -12 -65 -19 -19 -8 -35 -12 -38 -10
-2 2 -20 -3 -40 -11 -21 -8 -37 -13 -37 -10 0 4 -6 3 -12 -2 -7 -4 -17 -8 -23
-9 -5 -1 -25 -5 -44 -9 -19 -3 -38 -8 -43 -11 -10 -7 -119 -36 -135 -37 -7 0
-13 -4 -13 -9 0 -5 -4 -7 -9 -4 -5 3 -25 -1 -45 -9 -20 -8 -36 -13 -36 -11 0
3 -18 -1 -40 -9 -22 -8 -40 -12 -40 -10 0 2 -19 -3 -42 -11 -24 -9 -50 -17
-58 -19 -8 -2 -15 -4 -15 -5 0 -2 -16 -6 -55 -13 -14 -3 -26 -6 -27 -8 -4 -2
-12 -4 -58 -14 -22 -4 -55 -14 -72 -22 -18 -7 -33 -11 -33 -9 0 3 -19 -2 -42
-10 -24 -9 -55 -17 -70 -19 -15 -2 -37 -9 -48 -15 -11 -6 -20 -8 -20 -6 0 3
-18 -1 -40 -9 -22 -8 -40 -12 -40 -10 0 2 -19 -3 -42 -11 -24 -9 -50 -17 -58
-19 -8 -2 -15 -4 -15 -5 0 -2 -6 -3 -55 -13 -80 -17 -130 -33 -130 -40 0 -4
-4 -6 -9 -3 -5 3 -25 -1 -45 -9 -20 -8 -36 -13 -36 -11 0 3 -18 -1 -40 -9 -22
-8 -40 -12 -40 -10 0 2 -18 -2 -40 -10 -22 -8 -40 -12 -40 -10 0 2 -19 -3 -42
-12 -24 -8 -52 -17 -63 -19 -11 -2 -54 -13 -95 -25 -41 -11 -82 -22 -90 -24
-8 -2 -15 -4 -15 -5 0 -2 -20 -6 -65 -14 -19 -4 -43 -9 -53 -12 -15 -5 -18 -2
-13 13 3 10 12 54 21 98 9 44 20 96 25 115 5 19 11 46 14 60 2 14 18 81 34
150 17 69 42 175 56 235 14 61 48 204 76 319 27 114 52 218 54 230 3 11 25
104 51 206 25 102 52 212 60 245 8 33 37 152 64 265 27 113 64 266 82 340 18
74 39 141 48 147 8 7 25 13 38 13 13 0 23 4 23 8 0 4 8 8 18 9 17 1 55 10 60
13 4 4 15 7 60 15 23 4 42 11 42 14 0 4 8 7 18 8 17 1 55 10 60 13 1 2 7 4 12
5 6 1 11 3 13 5 3 2 21 6 66 14 19 4 41 10 50 15 9 4 44 14 79 22 34 7 62 16
62 19 0 3 8 6 18 7 25 2 156 36 162 42 3 4 14 7 25 9 16 2 38 7 53 11 1 1 5 2
10 3 4 1 36 10 72 20 36 10 72 20 80 23 8 2 16 4 18 4 1 1 4 1 7 1 3 1 23 7
45 15 22 8 40 12 40 10 0 -2 16 3 35 11 19 8 35 12 35 10 0 -3 18 1 39 9 22 7
42 11 45 8 3 -4 6 -1 6 6 0 7 4 9 10 6 5 -3 18 -1 28 4 11 6 34 13 52 16 18 3
47 12 65 19 19 8 36 12 38 9 3 -2 14 0 25 6 10 6 34 13 52 16 18 3 47 12 65
19 19 8 36 12 38 9 3 -2 14 0 25 6 10 6 34 13 52 16 18 3 47 12 65 19 19 8 35
12 38 10 2 -2 20 2 39 10 20 9 38 12 42 9 3 -4 6 -2 6 3 0 5 8 10 18 10 22 1
155 37 162 44 3 3 12 6 20 7 32 4 154 36 160 43 3 3 14 6 25 8 16 2 38 7 53
11 1 1 3 0 5 0 1 -1 18 5 37 13 19 8 41 13 48 11 6 -3 12 -1 12 4 0 5 8 10 18
11 14 1 50 8 60 11 1 1 4 1 7 1 3 0 21 6 40 14 19 8 35 13 35 11 0 -2 18 2 40
10 22 8 40 12 40 9 0 -2 16 2 35 10 19 8 35 13 35 11 0 -3 24 4 53 14 55 21
117 36 130 33 4 -1 7 2 7 6 0 4 8 8 18 9 44 5 82 16 82 25 0 5 4 7 9 4 5 -3
40 4 78 16 37 12 71 21 76 20 4 -1 7 2 7 6 0 4 8 8 18 9 30 2 76 14 82 21 5 7
16 10 56 18 36 7 96 34 92 43 -2 4 -41 43 -88 87 -47 43 -141 131 -209 194
-68 63 -128 118 -135 122 -6 4 -42 37 -81 73 -38 37 -115 107 -170 157 -55 50
-145 133 -200 183 -55 50 -122 111 -150 136 -27 24 -78 71 -113 104 -35 33
-69 63 -77 67 -7 4 -28 22 -46 40 -19 18 -81 76 -139 129 -242 221 -316 287
-384 348 -39 35 -118 107 -176 160 -88 81 -167 153 -216 196 -27 24 -240 221
-365 337 -108 102 -136 133 -133 150 2 13 17 91 34 173 18 83 33 161 35 175 2
14 4 26 4 28 1 1 1 4 1 7 1 3 7 26 15 52 8 26 12 49 10 51 -2 2 0 15 6 29 5
13 11 39 13 56 2 18 11 61 20 97 21 89 62 278 81 374 9 44 18 82 20 86 3 4 7
22 9 41 3 19 12 66 21 104 9 39 27 120 40 180 21 98 47 215 91 415 8 36 21 99
30 140 22 102 19 89 53 237 17 72 33 139 36 147 3 9 7 23 10 31 3 12 9 11 28
-8 13 -12 72 -65 131 -117z"/>
</g>
</svg>
