<?xml version="1.0" standalone="no"?>
<!DOCTYPE svg PUBLIC "-//W3C//DTD SVG 20010904//EN"
 "http://www.w3.org/TR/2001/REC-SVG-20010904/DTD/svg10.dtd">
<svg version="1.0" xmlns="http://www.w3.org/2000/svg"
 width="725.000000pt" height="497.000000pt" viewBox="0 0 725.000000 497.000000"
 preserveAspectRatio="xMidYMid meet">

<g transform="translate(0.000000,497.000000) scale(0.100000,-0.100000)"
fill="#000000" stroke="none">
<path d="M0 2485 l0 -2485 3625 0 3625 0 0 2485 0 2485 -3625 0 -3625 0 0
-2485z m2607 1893 c-2 -7 -44 -191 -92 -408 -48 -217 -89 -397 -91 -399 -2 -2
-269 -74 -594 -161 -325 -87 -594 -161 -597 -164 -4 -3 -4 -7 -2 -9 87 -69
939 -822 939 -830 0 -7 -44 -199 -97 -429 l-97 -416 -53 46 c-811 717 -1662
1481 -1662 1493 -1 18 144 668 150 672 5 4 2182 615 2193 616 4 1 6 -5 3 -11z
m1738 -7 l101 -6 -407 -1880 c-223 -1034 -409 -1895 -413 -1913 l-8 -32 -250
0 c-196 0 -249 3 -246 13 3 6 191 870 419 1920 l414 1907 145 -1 c80 -1 190
-4 245 -8z m-1072 -508 c3 -21 40 -346 83 -723 l77 -685 -132 -560 c-73 -308
-137 -580 -144 -605 l-11 -45 -7 35 c-4 19 -44 299 -90 623 -46 323 -86 587
-89 587 -3 0 -59 -255 -124 -568 -66 -312 -128 -609 -139 -659 l-20 -93 -269
0 c-252 0 -269 1 -264 18 3 9 141 618 306 1352 165 734 302 1341 305 1348 3 9
64 12 258 12 l254 0 6 -37z m1642 4 c132 -64 183 -155 172 -311 -5 -80 -201
-908 -233 -986 -26 -62 -66 -109 -124 -148 l-57 -38 28 -34 c37 -44 59 -109
66 -195 5 -63 -4 -114 -96 -525 -56 -250 -104 -463 -107 -472 -5 -17 -26 -18
-259 -18 -140 0 -256 3 -258 8 -3 4 44 214 105 467 60 253 112 481 115 506 9
73 -5 88 -85 91 -37 2 -67 7 -66 13 1 6 27 133 59 283 l59 272 67 0 c68 0 69
0 94 37 13 21 34 65 45 98 26 78 100 409 100 447 0 18 -10 39 -26 55 -23 23
-31 25 -90 21 -62 -4 -65 -3 -60 16 2 12 21 117 42 234 l38 212 201 0 201 0
69 -33z m1223 -1305 c452 -399 822 -730 822 -736 0 -20 -152 -671 -159 -678
-7 -8 -2203 -619 -2208 -614 -2 2 41 187 95 411 l99 408 389 108 c713 198 795
222 792 229 -2 4 -205 191 -453 415 -247 224 -451 410 -453 415 -2 5 149 706
174 806 l6 24 37 -32 c20 -17 406 -357 859 -756z"/>
</g>
</svg>
