<?xml version="1.0" standalone="no"?>
<!DOCTYPE svg PUBLIC "-//W3C//DTD SVG 20010904//EN"
 "http://www.w3.org/TR/2001/REC-SVG-20010904/DTD/svg10.dtd">
<svg version="1.0" xmlns="http://www.w3.org/2000/svg"
 width="3021.000000pt" height="2071.000000pt" viewBox="0 0 3021.000000 2071.000000"
 preserveAspectRatio="xMidYMid meet">

<g transform="translate(0.000000,2071.000000) scale(0.100000,-0.100000)"
fill="#000000" stroke="none">
<path d="M0 10355 l0 -10355 15105 0 15105 0 0 10355 0 10355 -15105 0 -15105
0 0 -10355z m10864 7926 c3 -4 -20 -116 -50 -247 -30 -131 -167 -741 -304
-1354 -236 -1058 -377 -1680 -400 -1762 -10 -35 -15 -39 -78 -57 -139 -41
-853 -235 -2332 -631 -892 -239 -2151 -582 -2399 -654 -84 -24 -161 -52 -170
-61 -15 -15 -13 -19 29 -53 291 -240 2110 -1837 3145 -2762 535 -478 735 -663
735 -678 0 -21 -122 -559 -350 -1547 -342 -1482 -454 -1955 -461 -1955 -8 0
-219 184 -924 809 -2818 2498 -5458 4867 -6125 5498 l-95 90 18 94 c76 398
460 2126 570 2563 20 76 39 142 44 146 4 4 170 53 368 110 1846 524 6704 1887
8670 2434 106 29 102 28 109 17z m6591 -41 c355 -10 1054 -46 1064 -56 2 -2
-352 -1652 -788 -3667 -436 -2014 -930 -4296 -1098 -5072 -1067 -4947 -1478
-6849 -1510 -6990 -20 -88 -38 -170 -41 -182 l-4 -23 -807 0 c-443 1 -890 5
-993 10 -171 8 -268 22 -268 37 0 3 31 146 70 317 181 811 940 4302 2669
12271 397 1826 723 3330 726 3343 l5 22 303 0 c166 0 469 -5 672 -10z m-3823
-2110 c32 -215 668 -5823 668 -5889 0 -27 -336 -1463 -860 -3671 -240 -1013
-322 -1350 -331 -1350 -16 0 -18 13 -314 2080 -356 2484 -448 3090 -465 3059
-24 -42 -174 -738 -699 -3229 -225 -1070 -424 -2014 -443 -2098 l-33 -153
-1070 4 c-1071 3 -1130 5 -1150 37 -3 4 11 77 30 162 120 516 632 2780 1320
5838 727 3232 1148 5095 1187 5247 9 39 14 44 51 54 78 21 334 26 1212 25
l880 -1 17 -115z m6722 43 c200 -95 248 -121 361 -197 210 -142 356 -334 428
-562 62 -197 75 -488 32 -737 -127 -738 -824 -3647 -951 -3967 -58 -147 -148
-284 -268 -408 -90 -94 -164 -153 -342 -272 l-142 -96 92 -114 c141 -177 212
-333 261 -574 65 -323 57 -490 -51 -1024 -112 -557 -743 -3372 -765 -3414 -27
-51 -255 -62 -1189 -54 -732 6 -931 12 -950 32 -5 5 4 74 25 174 64 316 148
679 470 2040 114 483 305 1311 371 1610 40 186 47 231 48 335 1 143 -12 182
-78 219 -53 31 -117 43 -293 56 -157 11 -236 25 -252 43 -6 9 0 59 20 157 101
487 214 1020 328 1547 72 332 131 605 131 607 0 2 114 5 253 8 300 6 314 9
386 105 63 85 174 319 225 473 97 296 358 1436 407 1778 18 127 -12 211 -110
309 -83 83 -99 87 -366 79 -206 -7 -233 -6 -245 8 -11 14 12 158 154 949 92
512 169 940 172 950 5 16 54 17 841 17 l836 0 161 -77z m1605 -2315 c365 -319
3586 -3156 4266 -3757 1134 -1005 2092 -1860 2463 -2200 117 -108 236 -217
264 -242 l51 -46 -12 -64 c-70 -362 -585 -2559 -642 -2735 -9 -31 -15 -33
-182 -82 -1069 -316 -8054 -2259 -8870 -2467 -81 -21 -150 -35 -153 -32 -10
10 149 703 400 1740 68 282 186 769 261 1082 76 314 141 573 144 577 4 4 686
196 1516 427 2808 780 3336 931 3395 971 17 12 46 -17 -351 350 -263 244 -759
695 -2014 1835 -736 668 -1223 1114 -1332 1220 l-73 70 10 45 c5 25 48 230 95
455 199 949 580 2695 636 2908 5 20 12 37 16 37 3 0 53 -42 112 -92z"/>
</g>
</svg>
